<?xml version="1.0" standalone="no"?>
<!DOCTYPE svg PUBLIC "-//W3C//DTD SVG 20010904//EN"
 "http://www.w3.org/TR/2001/REC-SVG-20010904/DTD/svg10.dtd">
<svg version="1.0" xmlns="http://www.w3.org/2000/svg"
 width="500.000000pt" height="500.000000pt" viewBox="0 0 500.000000 500.000000"
 preserveAspectRatio="xMidYMid meet">
<metadata>
Created by potrace 1.16, written by Peter Selinger 2001-2019
</metadata>
<g transform="translate(0.000000,500.000000) scale(0.100000,-0.100000)"
fill="#000000" stroke="none">
<path d="M2440 2950 l0 -230 715 0 715 0 0 230 0 230 -715 0 -715 0 0 -230z
m1410 0 l0 -210 -700 0 -700 0 0 210 0 210 700 0 700 0 0 -210z"/>
<path d="M2537 3064 c-12 -13 -8 -209 5 -222 7 -7 41 -12 83 -12 42 0 76 5 83
12 7 7 12 38 12 70 l0 58 -50 0 c-38 0 -50 -4 -50 -15 0 -10 10 -15 30 -15 28
0 30 -3 30 -35 l0 -35 -55 0 -55 0 0 85 0 85 51 0 c42 0 52 -3 56 -20 3 -11
14 -20 25 -20 16 0 19 6 16 33 l-3 32 -85 3 c-47 1 -89 0 -93 -4z"/>
<path d="M2790 2962 c0 -71 4 -112 12 -120 7 -7 41 -12 83 -12 42 0 76 5 83
12 8 8 12 49 12 120 0 101 -1 108 -20 108 -19 0 -20 -7 -20 -100 l0 -100 -55
0 -55 0 0 100 c0 93 -1 100 -20 100 -19 0 -20 -7 -20 -108z"/>
<path d="M3062 3058 c-8 -8 -12 -49 -12 -120 0 -101 1 -108 20 -108 17 0 20 7
20 40 l0 40 60 0 60 0 0 -40 c0 -33 3 -40 20 -40 19 0 20 7 20 108 0 71 -4
112 -12 120 -16 16 -160 16 -176 0z"/>
<path d="M3310 2950 c0 -112 1 -120 19 -120 16 0 20 8 23 43 3 40 5 42 37 45
64 6 81 -4 81 -48 0 -33 3 -40 20 -40 17 0 20 7 20 44 0 25 -5 48 -11 52 -8 4
-8 9 0 17 15 15 14 100 -1 115 -8 8 -45 12 -100 12 l-88 0 0 -120z"/>
<path d="M3580 2950 l0 -120 78 0 c69 0 81 3 100 23 19 20 22 35 22 98 0 66
-3 78 -23 97 -20 19 -35 22 -100 22 l-77 0 0 -120z m148 78 c7 -7 12 -39 12
-73 0 -34 -5 -66 -12 -73 -7 -7 -34 -12 -60 -12 l-48 0 0 85 0 85 48 0 c26 0
53 -5 60 -12z"/>
<path d="M1242 3058 c-8 -8 -12 -49 -12 -120 0 -101 1 -108 20 -108 18 0 20 8
22 103 l3 102 53 3 52 3 0 -105 0 -106 25 0 25 0 0 108 c0 71 -4 112 -12 120
-16 16 -160 16 -176 0z"/>
<path d="M2328 3038 c-3 -31 -5 -33 -48 -36 -24 -2 -50 -8 -57 -14 -17 -14
-17 -130 -1 -146 7 -7 35 -12 63 -12 28 0 56 5 63 12 8 8 12 49 12 120 0 87
-3 108 -14 108 -9 0 -16 -12 -18 -32z"/>
<path d="M1502 2988 c-16 -16 -16 -130 0 -146 17 -17 113 -15 127 2 7 9 11 41
9 83 l-3 68 -60 3 c-38 2 -65 -2 -73 -10z"/>
<path d="M1716 2993 c-3 -4 -6 -42 -6 -85 0 -62 3 -78 15 -78 11 0 15 16 17
68 3 65 4 67 31 70 l27 3 0 -70 c0 -64 2 -71 20 -71 18 0 20 7 20 71 l0 70 28
-3 c26 -3 27 -5 30 -70 3 -60 5 -68 22 -68 18 0 20 7 20 74 0 47 -5 77 -13 84
-13 11 -200 15 -211 5z"/>
<path d="M2007 2993 c-4 -3 -7 -15 -7 -25 0 -19 25 -25 35 -8 3 6 22 10 41 10
27 0 34 -4 34 -20 0 -18 -7 -20 -55 -20 l-55 0 0 -38 c0 -50 14 -62 75 -62 28
0 56 5 63 12 7 7 12 39 12 73 0 34 -5 66 -12 73 -13 13 -120 17 -131 5z"/>
</g>
</svg>
