<?xml version="1.0" encoding="utf-8"?>
<!-- Generator: Adobe Illustrator 24.1.2, SVG Export Plug-In . SVG Version: 6.00 Build 0)  -->
<svg version="1.1" id="Layer_1" xmlns="http://www.w3.org/2000/svg" xmlns:xlink="http://www.w3.org/1999/xlink" x="0px" y="0px"
	 viewBox="0 0 583.8 583.8" style="enable-background:new 0 0 583.8 583.8;" xml:space="preserve">
<style type="text/css">
	.st0{fill:#5CC6C7;}
	.st1{fill:#FFFFFF;}
</style>
<g id="Group_720" transform="translate(9 6)">
	<g transform="matrix(1, 0, 0, 1, -9, -6)">
		<path id="Path_70-2" class="st0" d="M291.9,6c156.2,0,282.9,126.7,282.9,282.9S448.1,571.8,291.9,571.8S9,445.1,9,288.9
			S135.7,6,291.9,6z"/>
	</g>
	<g id="Group_17" transform="translate(102.364 102.364)">
		<g id="Group_16" transform="translate(0 0)">
			<g>
				<path class="st1" d="M180.5-0.5c-99.8,0-181,81.2-181,181s81.2,181,181,181s181-81.2,181-181S280.3-0.5,180.5-0.5z M348.5,180.5
					c0,92.6-75.4,168-168,168s-168-75.4-168-168s75.4-168,168-168S348.5,87.9,348.5,180.5z"/>
				<path class="st0" d="M180.5,361.6c-99.9,0-181.1-81.3-181.1-181.1S80.6-0.6,180.5-0.6s181.1,81.3,181.1,181.1
					S280.4,361.6,180.5,361.6z M180.5-0.4C80.8-0.4-0.4,80.8-0.4,180.5s81.1,180.9,180.9,180.9s180.9-81.1,180.9-180.9
					S280.2-0.4,180.5-0.4z M180.5,348.6c-92.7,0-168.1-75.4-168.1-168.1S87.8,12.4,180.5,12.4s168.1,75.4,168.1,168.1
					S273.2,348.6,180.5,348.6z M180.5,12.6c-92.6,0-167.9,75.3-167.9,167.9c0,92.6,75.3,167.9,167.9,167.9
					c92.6,0,167.9-75.3,167.9-167.9C348.4,87.9,273.1,12.6,180.5,12.6z"/>
			</g>
			<g id="Path_44">
				<path class="st1" d="M187,120.9H21.5v-12.1H187c3.3-0.1,6-2.8,5.9-6.2c-0.1-3.2-2.7-5.8-5.9-5.9h-54.6c-10,0-18.1-8.1-18.1-18.1
					s8.1-18.1,18.1-18.1h18.4c3.3-0.1,6-2.8,5.9-6.2c-0.1-3.2-2.7-5.8-5.9-5.9H72V36.3h78.7c10,0,18.1,8.1,18.1,18.1
					s-8.1,18.1-18.1,18.1l0,0h-18.4c-3.3,0.1-6,2.8-5.9,6.2c0.1,3.2,2.7,5.8,5.9,5.9H187c10,0,18.1,8.1,18.1,18.1
					C205.1,112.8,197,120.9,187,120.9L187,120.9z"/>
			</g>
			<g id="Path_45">
				<path class="st1" d="M316.2,294.9H240c-10,0-18.1-8.1-18.1-18.1s8.1-18.1,18.1-18.1h54.6c3.3-0.1,6-2.8,5.9-6.2
					c-0.1-3.2-2.7-5.8-5.9-5.9h-12.3c-10,0-18.1-8.1-18.1-18.1s8.1-18.1,18.1-18.1h66.6v12.1h-66.6c-3.3,0.1-6,2.8-5.9,6.2
					c0.1,3.2,2.7,5.8,5.9,5.9h12.3c10,0,18.1,8.1,18.1,18.1s-8.1,18.1-18.1,18.1H240c-3.3,0.1-6,2.8-5.9,6.2
					c0.1,3.2,2.7,5.8,5.9,5.9h76.2V294.9z"/>
			</g>
			<g id="Path_46">
				<path class="st1" d="M60.4,228.8c-2,0-3.8-1-5-2.6c-4.2-6.1-25.2-37.3-25.2-51.8c0-16.7,13.5-30.2,30.2-30.2
					s30.2,13.5,30.2,30.2c0,14.5-21,45.7-25.2,51.8C64.3,227.9,62.4,228.8,60.4,228.8z M60.4,156.3c-10,0-18.1,8.1-18.1,18.1
					c0,6.6,9.4,23.8,18.1,37.4c8.7-13.6,18.1-30.8,18.1-37.4C78.6,164.4,70.5,156.3,60.4,156.3z"/>
			</g>
			<g id="Path_47">
				<path class="st1" d="M168.5,324.8c-2.1,0-4-1.1-5.1-2.9c-3.2-5.1-19-31.3-19-43.5c0-14.4,10.8-26.2,24.2-26.2
					c13.3,0,24.2,11.8,24.2,26.2c0,12.2-15.9,38.4-19,43.5C172.5,323.7,170.6,324.8,168.5,324.8z M168.5,264.3
					c-6.7,0-12.1,6.3-12.1,14.1c0,5,6,17.6,12.1,28.4c6-10.8,12.1-23.4,12.1-28.4C180.6,270.7,175.2,264.3,168.5,264.3z"/>
			</g>
			<g id="Path_48">
				<path class="st1" d="M270.7,174.9c-2.1,0-4.1-1.1-5.2-2.9c-3.2-5.2-31.1-51.8-31.1-69.6c0-20,16.2-36.3,36.3-36.3
					S307,82.3,307,102.4c0,17.9-27.9,64.4-31.1,69.6C274.7,173.8,272.8,174.9,270.7,174.9z M270.7,78.1c-13.4,0-24.2,10.8-24.2,24.2
					c0,9.4,13.3,35.5,24.2,54.6c10.9-19.1,24.2-45.2,24.2-54.6C294.8,89,284,78.2,270.7,78.1L270.7,78.1z"/>
			</g>
			<g id="Group_15" transform="translate(83.945 156.072)">
				<g id="Path_49">
					<path class="st1" d="M6,66.7c-3.3,0-6-2.7-6-6.1c0-1.2,0.4-2.4,1.1-3.4c0,0,0.7-1,2.1-2.8c2.1-2.6,5.9-3,8.5-0.9s3,5.9,0.9,8.5
						c0,0.1-0.1,0.1-0.1,0.2c-1,1.2-1.5,1.9-1.6,2C9.8,65.7,8,66.7,6,66.7z"/>
				</g>
				<g id="Path_50">
					<path class="st1" d="M23.8,49c-3.3,0-6-2.7-6.1-6c0-1.8,0.8-3.6,2.3-4.7c1.4-1.2,3-2.3,4.6-3.5c2.7-2,6.5-1.4,8.5,1.3
						s1.4,6.5-1.3,8.5c-1.5,1.1-2.9,2.2-4.2,3.2C26.5,48.5,25.2,49,23.8,49z M46.9,33.8c-3.3,0-6-2.7-6.1-6c0-2.2,1.2-4.3,3.2-5.3
						c1.7-0.9,3.4-1.8,5.1-2.6c3-1.4,6.6-0.2,8.1,2.8c1.4,3,0.2,6.5-2.7,8c-1.6,0.8-3.2,1.6-4.7,2.4C48.8,33.6,47.9,33.8,46.9,33.8z
						 M72.2,22.8c-3.3,0-6-2.7-6-6.1c0-2.6,1.6-4.9,4.1-5.7c1.8-0.6,3.6-1.2,5.4-1.8c3.2-1,6.6,0.7,7.6,3.8s-0.7,6.6-3.8,7.6
						c-0.1,0-0.1,0-0.2,0.1c-1.7,0.5-3.4,1.1-5.1,1.7C73.5,22.7,72.9,22.8,72.2,22.8L72.2,22.8z M98.9,15.8c-3.3,0-6-2.7-6-6
						c0-2.9,2.1-5.4,4.9-5.9c1.8-0.4,3.7-0.7,5.6-1c3.3-0.5,6.4,1.7,6.9,5s-1.7,6.3-5,6.9c-1.8,0.3-3.6,0.6-5.3,0.9
						C99.7,15.7,99.3,15.8,98.9,15.8L98.9,15.8z M126.4,12.4c-3.3,0-6-2.7-6-6.1c0-3.2,2.5-5.8,5.6-6c1.9-0.1,3.8-0.2,5.7-0.3
						c3.3,0,6,2.5,6.3,5.8c0.1,3.3-2.5,6.1-5.8,6.3l0,0c-1.8,0.1-3.6,0.2-5.4,0.3C126.6,12.4,126.5,12.4,126.4,12.4L126.4,12.4z"/>
				</g>
				<g id="Path_51">
					<path class="st1" d="M157.2,12.3c-0.1,0-0.2,0-0.3,0l-3-0.2c-3.3-0.2-5.9-3-5.8-6.3l0,0c0.2-3.3,3-5.9,6.3-5.8l3.1,0.2
						c3.3,0.2,5.9,3,5.7,6.4C163,9.8,160.4,12.3,157.2,12.3L157.2,12.3z"/>
				</g>
			</g>
			<g id="Path_52">
				<path class="st1" d="M204.4,264.9L204.4,264.9c-3.3,0-6-2.7-6-6c0-2.3,0.2-4.5,0.5-6.8c0.4-3.3,3.4-5.7,6.7-5.2
					c3.3,0.4,5.7,3.4,5.2,6.7c-0.2,1.8-0.4,3.5-0.4,5.3C210.5,262.2,207.8,264.9,204.4,264.9z M211,235.5c-3.3,0-6-2.7-6-6
					c0-0.8,0.1-1.5,0.4-2.2c0.8-1.9,1.6-3.9,2.6-5.9c1.5-3,5.1-4.3,8.1-2.8c3,1.4,4.2,5,2.8,8c-0.8,1.8-1.6,3.5-2.3,5.2
					C215.7,234,213.5,235.5,211,235.5L211,235.5z M226.3,209.5c-3.3,0-6-2.7-6-6.1c0-1.4,0.5-2.7,1.4-3.8c1.3-1.6,2.7-3.2,4.2-4.8
					c2.3-2.5,6.1-2.6,8.5-0.4c2.5,2.3,2.6,6.1,0.4,8.5l0,0c-1.3,1.4-2.6,2.9-3.7,4.3C229.8,208.7,228.1,209.5,226.3,209.5z
					 M248.5,189.2c-3.3,0-6-2.7-6-6c0-2,1-3.9,2.6-5c1.5-1,3-2,4.6-3c2.8-1.8,6.6-1,8.3,1.9c1.8,2.8,1,6.6-1.9,8.3H256
					c-1.4,0.9-2.8,1.8-4.1,2.7C250.9,188.8,249.7,189.2,248.5,189.2z"/>
			</g>
			<g id="Path_53">
				<path class="st1" d="M132.8,315.2c-0.6,0-1.3-0.1-1.9-0.3c-2-0.7-4-1.3-5.9-2c-3.1-1.2-4.6-4.7-3.4-7.8c1.2-3,4.5-4.6,7.6-3.5
					c1.8,0.7,3.6,1.3,5.5,1.9c3.2,1,4.9,4.5,3.9,7.6C137.8,313.6,135.4,315.2,132.8,315.2L132.8,315.2z M105.2,303.1
					c-1.1,0-2.1-0.3-3-0.8c-1.9-1.1-3.7-2.2-5.4-3.3c-2.7-1.9-3.4-5.7-1.5-8.4c1.8-2.6,5.4-3.4,8.1-1.7c1.5,1,3.2,2,4.9,3
					c2.9,1.7,3.9,5.4,2.2,8.3C109.4,302,107.4,303.1,105.2,303.1L105.2,303.1z M81.7,284.4c-1.7,0-3.4-0.7-4.5-2
					c-1.5-1.7-2.9-3.4-4.1-5c-2-2.6-1.6-6.4,1.1-8.5c2.6-2,6.4-1.6,8.5,1.1l0.1,0.1c1.1,1.4,2.2,2.9,3.5,4.3c2.2,2.5,2,6.3-0.5,8.5
					C84.6,283.8,83.2,284.4,81.7,284.4z M67.2,258.2c-2.8,0-5.2-1.9-5.9-4.6c-0.6-2.4-1-4.8-1.2-7.2c-0.1-3.3,2.5-6.1,5.8-6.3
					c3.3-0.1,6.1,2.5,6.3,5.8c0.1,1.6,0.4,3.2,0.9,4.8c0.8,3.2-1.2,6.5-4.4,7.3C68.2,258.1,67.7,258.2,67.2,258.2L67.2,258.2z"/>
			</g>
			<g>
				<path class="st1" d="M271.5,114.3L271.5,114.3c-5.8,0-10.5-4.7-10.5-10.5l0,0c0-5.8,4.7-10.5,10.5-10.5l0,0
					c5.8,0,10.5,4.7,10.5,10.5l0,0C282,109.6,277.3,114.3,271.5,114.3z"/>
			</g>
			<g>
				<path class="st1" d="M65,181.5L65,181.5c-3.4,2.5-8.1,1.8-10.6-1.5l0,0c-2.5-3.4-1.8-8.1,1.5-10.6l0,0c3.4-2.5,8.1-1.8,10.6,1.5
					l0,0C69,174.2,68.3,179,65,181.5z"/>
			</g>
		</g>
	</g>
</g>
</svg>
