<?xml version="1.0" encoding="utf-8"?>
<!-- Generator: Adobe Illustrator 24.1.2, SVG Export Plug-In . SVG Version: 6.00 Build 0)  -->
<svg version="1.1" id="Layer_1" xmlns="http://www.w3.org/2000/svg" xmlns:xlink="http://www.w3.org/1999/xlink" x="0px" y="0px"
	 viewBox="0 0 583.8 583.8" style="enable-background:new 0 0 583.8 583.8;" xml:space="preserve">
<style type="text/css">
	.st0{fill:#50AEEB;}
	.st1{fill:#FFFFFF;}
</style>
<g id="Group_719" transform="translate(9 6)">
	<g transform="matrix(1, 0, 0, 1, -9, -6)">
		<ellipse id="Ellipse_3-2_1_" class="st0" cx="291.9" cy="288.9" rx="282.9" ry="282.9"/>
	</g>
	<g id="Group_14" transform="translate(118.779 138.469)">
		<path class="st1" d="M266.2,237.1L266.2,237.1c-0.6-5.6-5.4-9.7-10.9-9.5h-2.8c-2,0-3.6-1.6-3.6-3.6s1.6-3.6,3.6-3.6l9.8,0
			c2-0.2,3.4-2,3.2-4c-0.2-1.7-1.5-3-3.3-3.2h-5.1l0-5.4c-0.1-1-0.6-1.8-1.3-2.4c-0.7-0.6-1.7-0.9-2.6-0.8c-1.7,0.2-3,1.5-3.2,3.3
			v5.5c-2.6,0.5-4.8,1.9-6.4,4.1c-1.7,2.3-2.4,5.1-2,7.8c0.7,5.2,5.3,9.2,10.6,9.2h2.8c2,0,3.6,1.6,3.6,3.6c0,2-1.5,3.6-3.4,3.6
			l-10,0c-1,0.1-1.8,0.6-2.4,1.3c-0.6,0.7-0.9,1.7-0.8,2.6c0.2,1.7,1.5,3,3.3,3.2h5.1v5.3c0,2,1.6,3.6,3.6,3.6c2,0,3.6-1.6,3.6-3.6
			v-5.5C262.9,247.8,266.8,242.7,266.2,237.1z"/>
		<path class="st1" d="M253.7,189.8c-22.7,0-41.3,18.6-41.4,41.4v0c0,22.8,18.6,41.4,41.4,41.4s41.4-18.6,41.4-41.4
			S276.5,189.8,253.7,189.8z M287.1,231.1c0,9-3.5,17.4-9.9,23.8c-6.3,6.3-14.7,9.8-23.7,9.8c-0.1,0-0.1,0-0.2,0
			c-9,0-17.4-3.5-23.8-9.9c-6.3-6.4-9.8-14.8-9.8-23.8c0-18.5,15-33.5,33.5-33.5h0.2c9,0,17.4,3.5,23.8,9.9
			C283.7,213.6,287.2,222.1,287.1,231.1z"/>
		<g>
			<path class="st1" d="M330.8,39.2h-33V22.3c0.8-14.5-10.2-27-24.6-27.8c-14.4-0.9-26.9,10.2-27.8,24.7v20H84.5v-17
				C84.2,15.2,81.1,8.7,76,4c-5.3-4.7-12-7.2-19-6.8c-13.7,0.6-24.4,11.3-25.1,25v16.9H-1.2c-2.6,0-4.6,2.2-4.6,4.7v245.9
				c0,2.6,2.1,4.6,4.6,4.6H331c2.7,0,4.6-2,4.5-4.4v-246C335.5,41.3,333.5,39.2,330.8,39.2z M41.2,39.1V22.2c0-9.4,7.6-17,17-17
				c9.3,0,16.9,7.6,16.9,17v16.9H41.2z M254.5,22.2c0-9.4,7.6-17,17-17c9.4,0,17,7.6,17,17v16.9h-33.9L254.5,22.2z M3.5,85V48.4
				h322.8V85H3.5z M326.2,94.2V285H3.5V94.2H326.2z"/>
			<path class="st1" d="M331,295.7H-1.2c-3.2,0-5.9-2.6-5.9-5.9V43.8c0-3.3,2.6-6,5.9-6h31.8V22.2C31.4,7.8,42.7-3.4,57-4.1
				C64.2-4.5,71.3-2,76.8,3c5.5,5,8.6,11.8,9,19.1l0,15.8h158.3V19.2c0.5-7.4,3.8-14.2,9.3-19.1c5.5-4.9,12.6-7.4,19.9-6.9
				c15.1,0.9,26.7,13.9,25.8,29.1l0,15.6h31.7c3.4,0,6,2.6,6,6v246c0.1,1.4-0.5,2.9-1.5,3.9C334.2,295,332.7,295.7,331,295.7z
				 M-1.2,40.4c-1.9,0-3.4,1.6-3.4,3.5v245.9c0,1.9,1.5,3.4,3.4,3.4H331c1,0,1.9-0.4,2.5-1c0.5-0.6,0.8-1.3,0.8-2.1l0-246.1
				c0-2-1.5-3.5-3.5-3.5h-34.2V22.3c0.8-13.9-9.7-25.8-23.4-26.6C266.5-4.7,260.1-2.5,255,2c-5,4.5-8,10.6-8.4,17.3l0,21.2H83.3
				V22.2C83,15.6,80.1,9.5,75.1,4.9c-5.1-4.6-11.5-6.9-18-6.5c-13,0.6-23.3,10.8-24,23.9l0,18.1H-1.2z M327.5,286.3H2.2V93h325.3
				V286.3z M4.7,283.8H325V95.5H4.7V283.8z M327.5,86.2H2.2V47.1h325.3V86.2z M4.7,83.7H325V49.6H4.7V83.7z M289.8,40.4h-36.4
				l-0.1-18.1c0-10.1,8.2-18.2,18.2-18.2s18.2,8.2,18.2,18.2V40.4z M255.9,37.9h31.4V22.2c0-8.7-7.1-15.7-15.8-15.7
				s-15.8,7.1-15.8,15.7L255.9,37.9z M76.3,40.4H39.9V22.2C39.9,12.1,48.1,4,58.2,4c10,0,18.1,8.2,18.1,18.2V40.4z M42.4,37.9h31.4
				V22.2c0-8.7-7-15.7-15.6-15.7c-8.7,0-15.7,7.1-15.7,15.7V37.9z"/>
		</g>
		<g id="Path_34">
			<path class="st1" d="M45.4,225.8c8.9,0,16.2-7.3,16.2-16.2s-7.3-16.2-16.2-16.2s-16.2,7.2-16.2,16.2
				C29.2,218.5,36.4,225.8,45.4,225.8L45.4,225.8z M45.4,200.9c4.7,0,8.6,3.8,8.6,8.6s-3.8,8.6-8.6,8.6s-8.6-3.8-8.6-8.6l0,0
				C36.8,204.7,40.7,200.9,45.4,200.9L45.4,200.9z"/>
			<path class="st1" d="M45.4,226c-9.1,0-16.5-7.4-16.5-16.4s7.4-16.5,16.5-16.5s16.4,7.4,16.4,16.5S54.5,226,45.4,226z M45.4,193.7
				c-8.8,0-16,7.2-16,16s7.2,15.9,16,15.9s15.9-7.2,15.9-15.9C61.3,200.8,54.2,193.7,45.4,193.7z M45.4,218.4c-5,0-8.9-3.9-8.9-8.9
				c0-4.9,4-8.8,8.9-8.8s8.8,4,8.8,8.8C54.2,214.5,50.4,218.4,45.4,218.4z M45.4,201.2c-4.6,0-8.4,3.7-8.4,8.3
				c0,4.7,3.7,8.4,8.4,8.4s8.3-3.7,8.3-8.4C53.7,204.9,50,201.2,45.4,201.2z"/>
		</g>
		<g id="Path_35">
			<path class="st1" d="M105.2,225.8c8.9,0,16.2-7.3,16.2-16.2s-7.3-16.2-16.2-16.2s-16.1,7.2-16.2,16.2
				C88.9,218.5,96.1,225.8,105.2,225.8C105.1,225.8,105.1,225.8,105.2,225.8z M105.2,200.9c4.7,0,8.6,3.8,8.6,8.6s-3.8,8.6-8.6,8.6
				s-8.6-3.8-8.6-8.6l0,0C96.6,204.7,100.4,200.9,105.2,200.9L105.2,200.9z"/>
			<path class="st1" d="M105.2,226L105.2,226c-4.5,0-8.7-1.7-11.8-4.9c-3.1-3.1-4.7-7.2-4.7-11.6c0.1-9.1,7.5-16.4,16.5-16.4
				c9.1,0,16.5,7.4,16.5,16.5S114.3,226,105.2,226z M105.2,193.7c-8.7,0-15.9,7.2-16,16c0,4.2,1.6,8.2,4.5,11.2
				c3,3,7.1,4.7,11.4,4.7c8.8,0,16-7.2,16-15.9C121.2,200.8,114,193.7,105.2,193.7z M105.2,218.4c-5,0-8.9-3.9-8.9-8.9
				s3.9-8.8,8.9-8.8c4.9,0,8.9,4,8.9,8.8C114.1,214.5,110.2,218.4,105.2,218.4z M105.2,201.2c-4.7,0-8.4,3.7-8.4,8.3
				c0,4.7,3.7,8.4,8.4,8.4s8.4-3.7,8.4-8.4C113.6,204.9,109.8,201.2,105.2,201.2z"/>
		</g>
		<g id="Path_36">
			<path class="st1" d="M45.4,268.4c8.9,0,16.2-7.3,16.2-16.2S54.3,236,45.4,236s-16.2,7.3-16.2,16.2l0,0l0,0
				C29.2,261.1,36.4,268.4,45.4,268.4z M45.4,243.5c4.7,0,8.6,3.8,8.6,8.6c0,4.7-3.8,8.6-8.6,8.6s-8.6-3.8-8.6-8.6
				C36.8,247.3,40.6,243.5,45.4,243.5L45.4,243.5L45.4,243.5z"/>
			<path class="st1" d="M45.4,268.7c-9.1,0-16.5-7.4-16.5-16.5s7.4-16.5,16.5-16.5s16.4,7.4,16.4,16.5S54.5,268.7,45.4,268.7z
				 M45.4,236.2c-8.8,0-16,7.2-16,16s7.2,16,16,16s15.9-7.2,15.9-16S54.2,236.2,45.4,236.2z M45.4,260.9c-5,0-8.9-3.9-8.9-8.8
				c0-5,3.9-8.9,8.9-8.9c4.9,0,8.8,4,8.8,8.9C54.2,257,50.3,260.9,45.4,260.9z M45.4,243.7c-4.7,0-8.4,3.7-8.4,8.4s3.7,8.3,8.4,8.3
				c4.6,0,8.3-3.7,8.3-8.3S50,243.7,45.4,243.7z"/>
		</g>
		<g id="Path_37">
			<path class="st1" d="M105.2,268.4c8.9,0,16.2-7.3,16.2-16.2s-7.3-16.2-16.2-16.2S89,243.3,89,252.2l0,0l0,0
				C89,261.1,96.2,268.4,105.2,268.4z M105.2,243.5c4.7,0,8.6,3.8,8.6,8.6c0,4.7-3.8,8.6-8.6,8.6s-8.6-3.8-8.6-8.6
				C96.6,247.3,100.4,243.5,105.2,243.5L105.2,243.5L105.2,243.5z"/>
			<path class="st1" d="M105.2,268.7c-9.1,0-16.5-7.4-16.5-16.5s7.4-16.5,16.5-16.5s16.5,7.4,16.5,16.5S114.3,268.7,105.2,268.7z
				 M105.2,236.2c-8.8,0-16,7.2-16,16s7.2,16,16,16s16-7.2,16-16S114,236.2,105.2,236.2z M105.2,260.9c-5,0-8.9-3.9-8.9-8.8
				c0-5,3.9-8.9,8.9-8.9c4.9,0,8.9,4,8.9,8.9C114.1,257,110.1,260.9,105.2,260.9z M105.2,243.7c-4.7,0-8.4,3.7-8.4,8.4
				s3.7,8.3,8.4,8.3c4.6,0,8.4-3.7,8.4-8.3S109.8,243.7,105.2,243.7z"/>
		</g>
		<g id="Path_38">
			<path class="st1" d="M164.9,225.8c8.9,0,16.2-7.3,16.2-16.2s-7.3-16.2-16.2-16.2s-16.2,7.2-16.2,16.2
				C148.7,218.5,155.9,225.8,164.9,225.8L164.9,225.8z M164.9,200.9c4.7,0,8.6,3.8,8.6,8.6s-3.8,8.6-8.6,8.6c-4.7,0-8.6-3.8-8.6-8.6
				C156.3,204.8,160.1,200.9,164.9,200.9L164.9,200.9L164.9,200.9z"/>
			<path class="st1" d="M164.9,226c-9.1,0-16.5-7.4-16.5-16.4s7.4-16.5,16.5-16.5s16.4,7.4,16.4,16.5S174,226,164.9,226z
				 M164.9,193.7c-8.8,0-16,7.2-16,16s7.2,15.9,16,15.9s15.9-7.2,15.9-15.9C180.8,200.8,173.7,193.7,164.9,193.7z M164.9,218.4
				c-4.9,0-8.9-4-8.9-8.9s4-8.8,8.9-8.8s8.9,4,8.9,8.8C173.8,214.5,169.9,218.4,164.9,218.4z M164.9,201.2c-4.6,0-8.4,3.7-8.4,8.3
				s3.7,8.4,8.4,8.4s8.4-3.7,8.4-8.4C173.3,204.9,169.5,201.2,164.9,201.2z"/>
		</g>
		<g id="Path_39">
			<path class="st1" d="M164.9,268.4c8.9,0,16.2-7.3,16.2-16.2s-7.3-16.2-16.2-16.2s-16.2,7.3-16.2,16.2l0,0l0,0
				C148.7,261.1,155.9,268.4,164.9,268.4z M164.9,243.5c4.7,0,8.6,3.8,8.6,8.6c0,4.7-3.8,8.6-8.6,8.6s-8.6-3.8-8.6-8.6
				C156.3,247.3,160.1,243.5,164.9,243.5L164.9,243.5L164.9,243.5z"/>
			<path class="st1" d="M164.9,268.7c-9.1,0-16.5-7.4-16.5-16.5s7.4-16.5,16.5-16.5s16.4,7.4,16.4,16.5S174,268.7,164.9,268.7z
				 M164.9,236.2c-8.8,0-16,7.2-16,16s7.2,16,16,16s15.9-7.2,15.9-16S173.7,236.2,164.9,236.2z M164.9,260.9c-5,0-8.9-3.9-8.9-8.8
				c0-5,3.9-8.9,8.9-8.9c4.9,0,8.9,4,8.9,8.9C173.8,257,169.8,260.9,164.9,260.9z M164.9,243.7c-4.7,0-8.4,3.7-8.4,8.4
				s3.7,8.3,8.4,8.3c4.6,0,8.4-3.7,8.4-8.3C173.3,247.5,169.5,243.7,164.9,243.7z"/>
		</g>
		<g id="Path_34_1_">
			<path class="st1" d="M45.4,183.2c8.9,0,16.2-7.3,16.2-16.2s-7.3-16.2-16.2-16.2S29.2,158,29.2,167
				C29.2,175.9,36.4,183.2,45.4,183.2L45.4,183.2z M45.4,158.3c4.7,0,8.6,3.8,8.6,8.6s-3.8,8.6-8.6,8.6s-8.6-3.8-8.6-8.6l0,0
				C36.8,162.2,40.7,158.4,45.4,158.3L45.4,158.3z"/>
			<g>
				<path class="st1" d="M45.4,150.4c-9.1,0-16.5,7.4-16.5,16.5c0,9.1,7.4,16.5,16.5,16.5c9.1,0,16.4-7.4,16.4-16.5
					C61.8,157.8,54.5,150.4,45.4,150.4z M45.4,183c-8.8,0-16-7.2-16-16s7.2-16,16-16s15.9,7.2,15.9,16S54.2,183,45.4,183z"/>
				<path class="st1" d="M45.3,158c-4.8,0.2-8.8,4.1-8.8,8.9c0,4.9,3.9,8.8,8.9,8.8s8.8-3.8,8.7-8.8C54.1,162,50.2,158,45.3,158z
					 M45.4,175.2c-4.7,0-8.4-3.6-8.4-8.3c0-4.6,3.8-8.3,8.4-8.4c4.6,0.1,8.3,3.8,8.3,8.4C53.7,171.5,50.1,175.2,45.4,175.2z"/>
			</g>
		</g>
		<g id="Path_34_2_">
			<path class="st1" d="M105.2,183.2c8.9,0,16.2-7.3,16.2-16.2s-7.3-16.2-16.2-16.2c-9,0-16.2,7.2-16.2,16.2
				C88.9,175.9,96.2,183.2,105.2,183.2C105.1,183.2,105.1,183.2,105.2,183.2z M105.2,158.3c4.7,0,8.6,3.8,8.6,8.6s-3.8,8.6-8.6,8.6
				s-8.6-3.8-8.6-8.6l0,0C96.6,162.2,100.4,158.4,105.2,158.3L105.2,158.3z"/>
			<path class="st1" d="M105.2,183.4L105.2,183.4c-4.5,0-8.6-1.8-11.8-4.9c-3.1-3.1-4.7-7.2-4.7-11.6c0-9.1,7.4-16.4,16.5-16.4
				s16.5,7.4,16.5,16.5S114.3,183.4,105.2,183.4z M105.2,151c-8.8,0-16,7.2-16,16c0,4.2,1.6,8.2,4.6,11.2c3,3.1,7.1,4.8,11.4,4.8
				c8.8,0,16-7.2,16-16S114,151,105.2,151z M105.2,175.7c-5,0-8.9-3.9-8.9-8.8c0-4.9,3.9-8.7,8.8-8.9l0,0c4.9,0,8.9,4,8.9,8.9
				C114.1,171.9,110.2,175.7,105.2,175.7z M105.2,158.5c-4.7,0.1-8.4,3.8-8.4,8.4c0,4.7,3.7,8.3,8.4,8.3s8.4-3.7,8.4-8.3
				C113.6,162.3,109.8,158.6,105.2,158.5z"/>
		</g>
		<g id="Path_34_3_">
			<path class="st1" d="M164.9,183.2c8.9,0,16.2-7.3,16.2-16.2s-7.3-16.2-16.2-16.2s-16.2,7.2-16.2,16.2
				C148.7,175.9,155.9,183.2,164.9,183.2L164.9,183.2z M164.9,158.3c4.7,0,8.6,3.8,8.6,8.6s-3.8,8.6-8.6,8.6s-8.6-3.8-8.6-8.6l0,0
				C156.3,162.2,160.2,158.4,164.9,158.3L164.9,158.3z"/>
			<path class="st1" d="M164.9,183.4c-9.1,0-16.5-7.4-16.5-16.5s7.4-16.5,16.5-16.5s16.4,7.4,16.4,16.5S174,183.4,164.9,183.4z
				 M164.9,151c-8.8,0-16,7.2-16,16s7.2,16,16,16s15.9-7.2,15.9-16S173.7,151,164.9,151z M164.9,175.7c-5,0-8.9-3.9-8.9-8.8
				c0-4.8,4-8.7,8.8-8.9l0,0c4.9,0,8.9,4,8.9,8.9C173.8,171.9,169.9,175.7,164.9,175.7z M164.9,158.5c-4.6,0.1-8.4,3.8-8.4,8.4
				c0,4.7,3.7,8.3,8.4,8.3s8.4-3.7,8.4-8.3C173.3,162.3,169.5,158.6,164.9,158.5z"/>
		</g>
		<g id="Path_34_4_">
			<path class="st1" d="M224.6,183.2c8.9,0,16.2-7.3,16.2-16.2s-7.3-16.2-16.2-16.2s-16.2,7.2-16.2,16.2
				C208.4,175.9,215.6,183.2,224.6,183.2L224.6,183.2z M224.6,158.3c4.7,0,8.6,3.8,8.6,8.6s-3.8,8.6-8.6,8.6s-8.6-3.8-8.6-8.6l0,0
				C216.1,162.2,219.9,158.4,224.6,158.3L224.6,158.3z"/>
			<path class="st1" d="M224.6,183.4c-9.1,0-16.5-7.4-16.5-16.5s7.4-16.5,16.5-16.5s16.5,7.4,16.5,16.5S233.7,183.4,224.6,183.4z
				 M224.6,151c-8.8,0-16,7.2-16,16s7.2,16,16,16s16-7.2,16-16S233.4,151,224.6,151z M224.6,175.7c-5,0-8.8-3.9-8.8-8.8
				c0.1-4.9,4-8.7,8.8-8.9l0,0c4.9,0,8.9,4,8.9,8.9C233.5,171.9,229.6,175.7,224.6,175.7z M224.6,158.5c-4.6,0.1-8.3,3.8-8.4,8.4
				c0,4.7,3.7,8.3,8.3,8.3c4.7,0,8.4-3.7,8.4-8.3C233,162.3,229.2,158.6,224.6,158.5z"/>
		</g>
		<g id="Path_34_5_">
			<path class="st1" d="M284.3,183.2c8.9,0,16.2-7.3,16.2-16.2s-7.3-16.2-16.2-16.2c-8.9,0-16.2,7.2-16.2,16.2
				C268,175.9,275.3,183.2,284.3,183.2C284.2,183.2,284.3,183.2,284.3,183.2z M284.3,158.3c4.7,0,8.6,3.8,8.6,8.6s-3.8,8.6-8.6,8.6
				s-8.6-3.8-8.6-8.6l0,0C275.7,162.2,279.5,158.4,284.3,158.3L284.3,158.3z"/>
			<path class="st1" d="M284.3,183.4L284.3,183.4c-4.5,0-8.6-1.8-11.8-4.9c-3.1-3.1-4.7-7.2-4.7-11.6c0-9.1,7.4-16.4,16.5-16.4
				s16.5,7.4,16.5,16.5S293.4,183.4,284.3,183.4z M284.3,151c-8.8,0-16,7.2-16,16c0,4.2,1.6,8.2,4.6,11.2c3,3.1,7.1,4.8,11.4,4.8
				c8.8,0,16-7.2,16-16S293.1,151,284.3,151z M284.3,175.7c-5,0-8.9-3.9-8.9-8.8c0-4.9,3.9-8.7,8.8-8.9l0,0c4.9,0,8.8,4,8.8,8.9
				C293.1,171.9,289.3,175.7,284.3,175.7z M284.3,158.5c-4.7,0.1-8.4,3.8-8.4,8.4c0,4.7,3.7,8.3,8.4,8.3c4.7,0,8.3-3.7,8.3-8.3
				C292.6,162.3,288.9,158.6,284.3,158.5z"/>
		</g>
		<g id="Path_34_10_">
			<path class="st1" d="M45.4,140.7c8.9,0,16.2-7.3,16.2-16.2s-7.3-16.2-16.2-16.2s-16.2,7.2-16.2,16.2
				C29.2,133.4,36.4,140.7,45.4,140.7L45.4,140.7z M45.4,115.8c4.7,0,8.6,3.8,8.6,8.6s-3.8,8.6-8.6,8.6s-8.6-3.8-8.6-8.6l0,0
				C36.8,119.7,40.7,115.9,45.4,115.8L45.4,115.8z"/>
			<path class="st1" d="M45.4,140.9c-9.1,0-16.5-7.4-16.5-16.5S36.3,108,45.4,108s16.4,7.4,16.4,16.4
				C61.8,133.6,54.5,140.9,45.4,140.9z M45.4,108.6c-8.8,0-16,7.2-16,15.9s7.2,16,16,16s15.9-7.2,15.9-16S54.2,108.6,45.4,108.6z
				 M45.4,133.2c-5,0-8.9-3.9-8.9-8.8c0-4.8,4-8.7,8.8-8.9l0,0c4.9,0,8.8,4,8.8,8.9C54.2,129.4,50.4,133.2,45.4,133.2z M45.4,116.1
				c-4.6,0.1-8.4,3.8-8.4,8.4c0,4.7,3.7,8.3,8.4,8.3s8.3-3.7,8.3-8.3C53.7,119.8,50,116.1,45.4,116.1z"/>
		</g>
		<g id="Path_34_9_">
			<path class="st1" d="M105.2,140.7c8.9,0,16.2-7.3,16.2-16.2s-7.3-16.2-16.2-16.2S89,115.5,89,124.5
				C88.9,133.4,96.2,140.7,105.2,140.7C105.1,140.7,105.1,140.7,105.2,140.7z M105.2,115.8c4.7,0,8.6,3.8,8.6,8.6s-3.8,8.6-8.6,8.6
				s-8.6-3.8-8.6-8.6l0,0C96.6,119.7,100.4,115.9,105.2,115.8L105.2,115.8z"/>
			<path class="st1" d="M105.2,140.9L105.2,140.9c-4.5,0-8.6-1.8-11.8-4.9c-3.1-3.1-4.7-7.2-4.7-11.6c0-9.1,7.4-16.4,16.5-16.4
				s16.5,7.4,16.5,16.4C121.7,133.6,114.3,140.9,105.2,140.9z M105.2,108.6c-8.8,0-16,7.2-16,15.9c0,4.2,1.6,8.2,4.6,11.2
				c3,3.1,7.1,4.8,11.4,4.8c8.8,0,16-7.2,16-16S114,108.6,105.2,108.6z M105.2,133.2c-5,0-8.9-3.9-8.9-8.8c0-4.9,3.9-8.7,8.8-8.9
				l0,0c4.9,0,8.9,4,8.9,8.9C114.1,129.4,110.2,133.2,105.2,133.2z M105.2,116.1c-4.7,0.1-8.4,3.8-8.4,8.4c0,4.7,3.7,8.3,8.4,8.3
				s8.4-3.7,8.4-8.3C113.6,119.8,109.8,116.1,105.2,116.1z"/>
		</g>
		<g id="Path_34_8_">
			<path class="st1" d="M164.9,140.7c8.9,0,16.2-7.3,16.2-16.2s-7.3-16.2-16.2-16.2s-16.2,7.2-16.2,16.2
				C148.7,133.4,155.9,140.7,164.9,140.7L164.9,140.7z M164.9,115.8c4.7,0,8.6,3.8,8.6,8.6s-3.8,8.6-8.6,8.6s-8.6-3.8-8.6-8.6l0,0
				C156.3,119.7,160.2,115.9,164.9,115.8L164.9,115.8z"/>
			<path class="st1" d="M164.9,140.9c-9.1,0-16.5-7.4-16.5-16.5s7.4-16.4,16.5-16.4s16.4,7.4,16.4,16.4
				C181.3,133.6,174,140.9,164.9,140.9z M164.9,108.6c-8.8,0-16,7.2-16,15.9s7.2,16,16,16s15.9-7.2,15.9-16S173.7,108.6,164.9,108.6
				z M164.9,133.2c-5,0-8.9-3.9-8.9-8.8c0-4.8,4-8.7,8.8-8.9l0,0c4.9,0,8.9,4,8.9,8.9C173.8,129.4,169.9,133.2,164.9,133.2z
				 M164.9,116.1c-4.6,0.1-8.4,3.8-8.4,8.4c0,4.7,3.7,8.3,8.4,8.3s8.4-3.7,8.4-8.3C173.3,119.8,169.5,116.1,164.9,116.1z"/>
		</g>
		<g id="Path_34_7_">
			<path class="st1" d="M224.6,140.7c8.9,0,16.2-7.3,16.2-16.2s-7.3-16.2-16.2-16.2s-16.2,7.2-16.2,16.2
				C208.4,133.4,215.6,140.7,224.6,140.7L224.6,140.7z M224.6,115.8c4.7,0,8.6,3.8,8.6,8.6s-3.8,8.6-8.6,8.6s-8.6-3.8-8.6-8.6l0,0
				C216.1,119.7,219.9,115.9,224.6,115.8L224.6,115.8z"/>
			<path class="st1" d="M224.6,140.9c-9.1,0-16.5-7.4-16.5-16.5s7.4-16.4,16.5-16.4s16.5,7.4,16.5,16.4
				C241.1,133.6,233.7,140.9,224.6,140.9z M224.6,108.6c-8.8,0-16,7.2-16,15.9s7.2,16,16,16s16-7.2,16-16S233.4,108.6,224.6,108.6z
				 M224.6,133.2c-5,0-8.8-3.9-8.8-8.8c0.1-4.9,4-8.7,8.8-8.9l0,0c4.9,0,8.9,4,8.9,8.9C233.5,129.4,229.6,133.2,224.6,133.2z
				 M224.6,116.1c-4.6,0.1-8.3,3.8-8.4,8.4c0,4.7,3.7,8.3,8.3,8.3c4.7,0,8.4-3.7,8.4-8.3C233,119.8,229.2,116.1,224.6,116.1z"/>
		</g>
		<g id="Path_34_6_">
			<path class="st1" d="M284.3,140.7c8.9,0,16.2-7.3,16.2-16.2s-7.3-16.2-16.2-16.2c-8.9,0-16.2,7.2-16.2,16.2
				C268,133.4,275.3,140.7,284.3,140.7C284.2,140.7,284.3,140.7,284.3,140.7z M284.3,115.8c4.7,0,8.6,3.8,8.6,8.6s-3.8,8.6-8.6,8.6
				s-8.6-3.8-8.6-8.6l0,0C275.7,119.7,279.5,115.9,284.3,115.8L284.3,115.8z"/>
			<path class="st1" d="M284.3,140.9L284.3,140.9c-4.5,0-8.6-1.8-11.8-4.9c-3.1-3.1-4.7-7.2-4.7-11.6c0-9.1,7.4-16.4,16.5-16.4
				s16.5,7.4,16.5,16.4C300.8,133.6,293.4,140.9,284.3,140.9z M284.3,108.6c-8.8,0-16,7.2-16,15.9c0,4.2,1.6,8.2,4.6,11.2
				c3,3.1,7.1,4.8,11.4,4.8c8.8,0,16-7.2,16-16S293.1,108.6,284.3,108.6z M284.3,133.2c-5,0-8.9-3.9-8.9-8.8c0-4.9,3.9-8.7,8.8-8.9
				l0,0c4.9,0,8.8,4,8.8,8.9C293.1,129.4,289.3,133.2,284.3,133.2z M284.3,116.1c-4.7,0.1-8.4,3.8-8.4,8.4c0,4.7,3.7,8.3,8.4,8.3
				c4.7,0,8.3-3.7,8.3-8.3C292.6,119.8,288.9,116.1,284.3,116.1z"/>
		</g>
	</g>
</g>
</svg>
