<?xml version="1.0" encoding="utf-8"?>
<!-- Generator: Adobe Illustrator 24.1.2, SVG Export Plug-In . SVG Version: 6.00 Build 0)  -->
<svg version="1.1" id="Layer_1" xmlns="http://www.w3.org/2000/svg" xmlns:xlink="http://www.w3.org/1999/xlink" x="0px" y="0px"
	 viewBox="0 0 583.8 583.8" style="enable-background:new 0 0 583.8 583.8;" xml:space="preserve">
<style type="text/css">
	.st0{fill:#EDAD68;}
	.st1{fill:#FFFFFF;}
</style>
<g>
	<g id="Group_717" transform="translate(9 6)">
		<g transform="matrix(1, 0, 0, 1, -9, -6)">
			<ellipse id="Ellipse_4-2_1_" class="st0" cx="291.9" cy="288.9" rx="282.9" ry="282.9"/>
		</g>
		<path class="st1" d="M340.9,286.5h-31.5V255c0-3.9-3.2-7.1-7.1-7.1h-38.6c-3.9,0-7.1,3.2-7.1,7.1v31.5h-31.5
			c-3.9,0-7.1,3.2-7.1,7.1v38.6c0,3.9,3.2,7.1,7.1,7.1h31.5v31.5c0,3.9,3.2,7.1,7.1,7.1h38.6c3.9,0,7.1-3.2,7.1-7.1v-31.5h31.5
			c3.9,0,7.1-3.2,7.1-7.1v-38.6C348,289.7,344.8,286.5,340.9,286.5z M262.4,325.9h-33.6v-26h33.6c4.2,0,7.6-3.4,7.6-7.6v-33.5h26
			v33.5c0,4.2,3.4,7.6,7.6,7.6h33.6v26h-33.6c-4.2,0-7.6,3.4-7.6,7.6v33.6h-26v-33.6C270,329.3,266.6,325.9,262.4,325.9z"/>
	</g>
	<path class="st1" d="M435.1,291.8v150.8c0,5.8-4.7,10.5-10.4,10.6c-0.1,0-0.1,0-0.2,0H159.7c-5.6,0.2-10.4-4.1-10.6-9.7
		c0-0.3,0-0.7,0-0.9V291.8h-45.5c-6-0.1-10.7-5-10.6-11c0.1-3.6,2-6.9,4.9-8.8l187.6-139c4.4-3.1,9.4-3.1,13.1,0l91,67.4v-36.8
		c0-5.8,4.7-10.5,10.4-10.6c0.1,0,0.1,0,0.2,0h33c5.8,0,10.5,4.7,10.6,10.4c0,0.1,0,0.1,0,0.2v77.1l43,31.7c4.4,3.7,5.6,10,1.9,14.9
		c-1.9,2.6-4.8,4.2-8.2,4.4L435.1,291.8L435.1,291.8z M414,432V281.2c0-5.8,4.7-10.5,10.4-10.6c0.1,0,0.1,0,0.2,0h24.3L427.6,255
		c-3.1-1.7-5-5.1-4.9-8.7v-72.3h-12.4v47.3c0,2.2-0.8,4.4-1.9,6.2c-3.1,4.4-10,5.6-14.9,1.9L291.9,154L135.5,270.4h24.3
		c5.8,0,10.5,4.7,10.6,10.4c0,0.1,0,0.1,0,0.2v150.8L414,432L414,432z"/>
	<path class="st0" d="M159.3,457.3c-7.5,0-13.9-6-14.3-13.5l0-0.2V295.8h-41.5c-8.2-0.1-14.8-6.9-14.6-15.1
		c0.1-4.9,2.6-9.4,6.7-12.1l187.5-138.9c5.9-4.2,12.9-4.2,18,0.1l84.5,62.6v-28.8c0-7.9,6.5-14.5,14.4-14.6l0.3,0h33
		c7.9,0,14.5,6.5,14.6,14.4l0,0.3v75.1l41.6,30.7c6.2,5.3,7.3,14,2.5,20.4c-2.6,3.5-6.7,5.7-11.1,6l-0.2,0h-41.5v146.9
		c0,7.9-6.5,14.5-14.4,14.6l-0.3,0H159.7C159.6,457.3,159.5,457.3,159.3,457.3z M153,443.5c0.2,3.4,3.1,5.9,6.5,5.8l0.1,0h264.9
		c3.5-0.1,6.4-3,6.4-6.6V287.7h49.4c2-0.1,3.9-1.1,5.1-2.8c2.6-3.5,1.2-7.3-1.2-9.4l-44.5-32.8v-79.3c-0.1-3.5-3-6.4-6.6-6.4H400
		c-3.5,0.1-6.4,3-6.4,6.6v44.7L296,136c-2.3-1.9-5.3-1.9-8.2,0.2l-187.7,139l-0.1,0.1c-1.9,1.2-3.1,3.3-3.1,5.6
		c-0.1,3.7,2.9,6.9,6.7,6.9l49.4,0V443.5z M418,436l-251.5-0.1v-155c-0.1-3.5-3-6.4-6.6-6.4h-36.4L291.9,149l103.9,77.1
		c1.5,1.1,3.4,1.6,5.2,1.3c1.6-0.3,3.1-1.1,4-2.3c0.8-1.3,1.2-2.7,1.2-3.9v-51.3h20.4l0,76.4c-0.1,2.1,1.1,4.1,2.9,5.1l0.4,0.3
		l31.2,22.8h-36.7c-3.5,0.1-6.4,3-6.4,6.6V436z M174.5,427.9L410,428V281.2c0-7.9,6.5-14.5,14.4-14.6l12.3,0l-11.2-8.2
		c-4.2-2.4-6.9-7.2-6.8-12.2v-68.2h-4.4v43.3c0,2.8-0.9,5.7-2.5,8.3l-0.1,0.2c-2.1,3-5.5,5-9.3,5.6c-4,0.6-8-0.4-11.2-2.8L291.9,159
		L147.6,266.4h12.3c7.9,0,14.5,6.5,14.6,14.4l0,0.3V427.9z"/>
</g>
</svg>
