<?xml version="1.0" encoding="utf-8"?>
<!-- Generator: Adobe Illustrator 24.1.2, SVG Export Plug-In . SVG Version: 6.00 Build 0)  -->
<svg version="1.1" id="Layer_1" xmlns="http://www.w3.org/2000/svg" xmlns:xlink="http://www.w3.org/1999/xlink" x="0px" y="0px"
	 viewBox="0 0 583.8 583.8" style="enable-background:new 0 0 583.8 583.8;" xml:space="preserve">
<style type="text/css">
	.st0{fill:#EDCE68;}
	.st1{fill:none;}
	.st2{fill:#FFFFFF;}
</style>
<g id="Group_718" transform="translate(9 6)">
	<g transform="matrix(1, 0, 0, 1, -9, -6)">
		<ellipse id="Ellipse_5-2" class="st0" cx="294.6" cy="286.2" rx="282.9" ry="282.9"/>
	</g>
	<g id="Group_13" transform="translate(59.079 68.926)">
		<g id="Group_12">
			<rect id="Rectangle_7" x="0" y="0" class="st1" width="420" height="420"/>
			<path id="Path_8" class="st2" d="M197.4,272.1c-10.6,0-21-2.2-30.7-6.6c-3.1-1.5-4.4-5.3-2.8-8.4c1.5-3,5-4.3,8-3
				c31.3,14,68.1,0.1,82.1-31.2c7.3-16.2,7.3-34.8-0.1-51c-1.5-3.1-0.3-6.9,2.9-8.4c3.1-1.5,6.9-0.3,8.4,2.9
				c0.1,0.1,0.1,0.2,0.2,0.4c17,37.5,0.4,81.8-37.1,98.9C218.6,269.8,208,272.1,197.4,272.1z"/>
			<path id="Path_9" class="st2" d="M135.3,232.3c-2.5,0-4.7-1.4-5.7-3.7c-17.2-37.5-0.8-81.9,36.7-99.1c19.6-9,42.2-9.1,61.9-0.2
				c3.3,1.2,4.9,4.9,3.7,8.1c-1.2,3.3-4.9,4.9-8.1,3.7c-0.2-0.1-0.5-0.2-0.7-0.3c-31.3-14.1-68.1-0.2-82.2,31.1
				c-7.4,16.4-7.3,35.2,0.2,51.5c1.5,3.2,0.1,6.9-3.1,8.4C137.1,232.1,136.2,232.3,135.3,232.3L135.3,232.3z"/>
			<path id="Path_10" class="st2" d="M158.9,273.3c-1.6,0-3.2-0.4-4.6-1.3c-13-7.7-23.8-18.5-31.5-31.5c-2.1-3.6-1.5-8.2,1.4-11.1
				l89-88.9c2.6-2.3,6.6-2.2,8.9,0.4c2.2,2.4,2.2,6.1,0,8.5l-87.1,87c6,9.4,14,17.3,23.3,23.4l101.4-101.4
				c-6-9.4-13.9-17.3-23.3-23.3l-14.3,14.3c-2.6,2.3-6.6,2.2-8.9-0.4c-2.2-2.4-2.2-6.1,0-8.5l16.3-16.3c2.9-2.9,7.5-3.5,11.1-1.4
				c13,7.7,23.8,18.5,31.5,31.5c2.1,3.6,1.5,8.2-1.4,11.1L165.4,270.6C163.7,272.4,161.3,273.3,158.9,273.3z"/>
			<path id="Path_11" class="st2" d="M364.7,383.5c-4.3,0-8.5-1.7-11.5-4.8L229.8,255.4l25.8-25.8L379,353
				c6.4,6.4,3.7,19.4-2.7,25.8C373.2,381.8,369,383.5,364.7,383.5L364.7,383.5z M247.8,255.4l114.3,114.4c1.5,1.4,5.5,0.6,7-0.8
				c1.5-1.5,2.5-5.7,1-7.2l0,0l0,0L255.6,247.6L247.8,255.4z"/>
			<path id="Path_12" class="st2" d="M334.2,226.8c-3.5,0-6.3-2.8-6.3-6.3c0-1.7,0.7-3.3,1.8-4.4l21.4-21.4c2.6-2.3,6.6-2.2,8.9,0.4
				c2.2,2.4,2.2,6.1,0,8.5L338.6,225C337.5,226.1,335.9,226.8,334.2,226.8z"/>
			<path id="Path_13" class="st2" d="M355.6,226.8c-1.7,0-3.3-0.7-4.5-1.8l-21.4-21.4c-2.3-2.6-2.2-6.6,0.4-8.9
				c2.4-2.2,6.1-2.2,8.5,0l21.4,21.4c2.5,2.5,2.5,6.5,0,8.9C358.9,226.1,357.3,226.8,355.6,226.8z"/>
			<path id="Path_14" class="st2" d="M145.2,74.7c-3.5,0-6.3-2.8-6.3-6.3c0-1.7,0.7-3.3,1.8-4.4l21.4-21.4c2.6-2.3,6.6-2.2,8.9,0.4
				c2.2,2.4,2.2,6.1,0,8.5l-21.4,21.4C148.5,74,146.9,74.7,145.2,74.7z"/>
			<path id="Path_15" class="st2" d="M166.6,74.7c-1.7,0-3.3-0.7-4.5-1.8l-21.4-21.4c-2.3-2.6-2.2-6.6,0.4-8.9
				c2.4-2.2,6.1-2.2,8.5,0L171,64c2.5,2.5,2.5,6.5,0,8.9C169.9,74,168.3,74.7,166.6,74.7z"/>
			<path id="Path_16" class="st2" d="M210.9,361.7h-30.3c-3.5,0-6.3-2.8-6.3-6.3s2.8-6.3,6.3-6.3h30.3c3.5,0,6.3,2.8,6.3,6.3
				C217.2,358.9,214.3,361.7,210.9,361.7z"/>
			<path id="Path_17" class="st2" d="M195.7,376.8c-3.5,0-6.3-2.8-6.3-6.3l0,0v-30.4c0-3.5,2.8-6.3,6.3-6.3s6.3,2.8,6.3,6.3l0,0
				v30.3C202.1,373.9,199.3,376.8,195.7,376.8L195.7,376.8z"/>
			<path id="Path_18" class="st2" d="M54.6,141.4c-9.8,0-17.7-7.9-17.7-17.7S44.8,106,54.6,106s17.7,7.9,17.7,17.7l0,0
				C72.3,133.5,64.4,141.4,54.6,141.4z M54.6,118.6c-2.8,0-5.1,2.3-5.1,5.1c0,2.8,2.3,5.1,5.1,5.1s5.1-2.3,5.1-5.1l0,0
				C59.7,120.9,57.4,118.6,54.6,118.6L54.6,118.6z"/>
			<path id="Path_19" class="st2" d="M319.6,103.6c-9.8,0-17.7-7.9-17.7-17.7s7.9-17.7,17.7-17.7c9.8,0,17.7,7.9,17.7,17.7l0,0
				C337.3,95.7,329.4,103.6,319.6,103.6L319.6,103.6z M319.6,80.8c-2.8,0-5.1,2.3-5.1,5.1c0,2.8,2.3,5.1,5.1,5.1
				c2.8,0,5.1-2.3,5.1-5.1C324.7,83.1,322.4,80.8,319.6,80.8L319.6,80.8z"/>
			<path id="Path_20" class="st2" d="M74,317.8c-9.8,0-17.7-7.9-17.7-17.7s7.9-17.7,17.7-17.7s17.7,7.9,17.7,17.7l0,0
				C91.7,309.9,83.7,317.8,74,317.8L74,317.8z M74,295c-2.8,0-5.1,2.3-5.1,5.1c0,2.8,2.3,5.1,5.1,5.1c2.8,0,5.1-2.3,5.1-5.1l0,0
				C79.1,297.3,76.8,295,74,295L74,295z"/>
		</g>
	</g>
</g>
</svg>
